# xmcd CD database file
#
# Track frame offsets:
#	150
#	35115
#	69373
#	99834
#	130304
#	173339
#	210097
#
# Disc length: 3746 seconds
#
# Revision: 0
# Processed by: cddbd v1.5.2PL0 Copyright (c) Steve Scherf et al.
# Submitted via: CDex 1.51
#
DISCID=4f0ea007
DTITLE=Sam Newsome - The Tender Side Of Sammy Straighthorn
DYEAR=1998
DGENRE=Jazz
TTITLE0=Victoria's Secret
TTITLE1=The Tender Side Of Sammy Straighthorn
TTITLE2=Autumn Leaves
TTITLE3=12 Bars From Hell
TTITLE4=Lullaby Of Takeda
TTITLE5=The Dumpess Of Nyack
TTITLE6=All The Things You Are
EXTD=YEAR: 1998
EXTT0=
EXTT1=
EXTT2=
EXTT3=
EXTT4=
EXTT5=
EXTT6=
PLAYORDER=
